<svg width="512" height="512" viewBox="0 0 512 512" fill="none" xmlns="http://www.w3.org/2000/svg">
  <g shape-rendering="crispEdges">
    <rect x="184" y="80" width="16" height="16" fill="#26314C"/>
    <rect x="200" y="80" width="112" height="16" fill="#26314C"/>
    <rect x="312" y="80" width="16" height="16" fill="#26314C"/>
    <rect x="168" y="96" width="16" height="16" fill="#26314C"/>
    <rect x="184" y="96" width="128" height="16" fill="#B7BECF"/>
    <rect x="312" y="96" width="16" height="16" fill="#26314C"/>
    <rect x="328" y="96" width="16" height="16" fill="#26314C"/>
    <rect x="152" y="112" width="16" height="16" fill="#26314C"/>
    <rect x="168" y="112" width="32" height="16" fill="#B7BECF"/>
    <rect x="200" y="112" width="112" height="16" fill="#11192C"/>
    <rect x="312" y="112" width="32" height="16" fill="#B7BECF"/>
    <rect x="344" y="112" width="16" height="16" fill="#26314C"/>
    <rect x="152" y="128" width="16" height="16" fill="#26314C"/>
    <rect x="168" y="128" width="16" height="16" fill="#B7BECF"/>
    <rect x="184" y="128" width="16" height="16" fill="#11192C"/>
    <rect x="200" y="128" width="112" height="16" fill="#F1B59E"/>
    <rect x="312" y="128" width="16" height="16" fill="#11192C"/>
    <rect x="328" y="128" width="16" height="16" fill="#B7BECF"/>
    <rect x="344" y="128" width="16" height="16" fill="#26314C"/>
    <rect x="152" y="144" width="16" height="16" fill="#26314C"/>
    <rect x="168" y="144" width="16" height="16" fill="#B7BECF"/>
    <rect x="184" y="144" width="16" height="16" fill="#11192C"/>
    <rect x="200" y="144" width="16" height="16" fill="#F1B59E"/>
    <rect x="216" y="144" width="80" height="16" fill="#F6C3AF"/>
    <rect x="296" y="144" width="16" height="16" fill="#F1B59E"/>
    <rect x="312" y="144" width="16" height="16" fill="#11192C"/>
    <rect x="328" y="144" width="16" height="16" fill="#B7BECF"/>
    <rect x="344" y="144" width="16" height="16" fill="#26314C"/>
    <rect x="152" y="160" width="16" height="16" fill="#26314C"/>
    <rect x="168" y="160" width="16" height="16" fill="#B7BECF"/>
    <rect x="184" y="160" width="16" height="16" fill="#11192C"/>
    <rect x="200" y="160" width="16" height="16" fill="#F1B59E"/>
    <rect x="216" y="160" width="80" height="16" fill="#F8CCB9"/>
    <rect x="296" y="160" width="16" height="16" fill="#F1B59E"/>
    <rect x="312" y="160" width="16" height="16" fill="#11192C"/>
    <rect x="328" y="160" width="16" height="16" fill="#B7BECF"/>
    <rect x="344" y="160" width="16" height="16" fill="#26314C"/>
    <rect x="152" y="176" width="16" height="16" fill="#26314C"/>
    <rect x="168" y="176" width="16" height="16" fill="#B7BECF"/>
    <rect x="184" y="176" width="16" height="16" fill="#11192C"/>
    <rect x="200" y="176" width="112" height="16" fill="#F6C3AF"/>
    <rect x="312" y="176" width="16" height="16" fill="#11192C"/>
    <rect x="328" y="176" width="16" height="16" fill="#B7BECF"/>
    <rect x="344" y="176" width="16" height="16" fill="#26314C"/>
    <rect x="152" y="192" width="16" height="16" fill="#26314C"/>
    <rect x="168" y="192" width="32" height="16" fill="#B7BECF"/>
    <rect x="200" y="192" width="112" height="16" fill="#11192C"/>
    <rect x="312" y="192" width="32" height="16" fill="#B7BECF"/>
    <rect x="344" y="192" width="16" height="16" fill="#26314C"/>
    <rect x="168" y="208" width="16" height="16" fill="#26314C"/>
    <rect x="184" y="208" width="128" height="16" fill="#B7BECF"/>
    <rect x="312" y="208" width="16" height="16" fill="#26314C"/>

    <rect x="168" y="224" width="16" height="16" fill="#74809B"/>
    <rect x="184" y="224" width="144" height="16" fill="#A8B2C6"/>
    <rect x="328" y="224" width="16" height="16" fill="#74809B"/>

    <rect x="136" y="240" width="16" height="16" fill="#74809B"/>
    <rect x="152" y="240" width="16" height="16" fill="#A8B2C6"/>
    <rect x="168" y="240" width="176" height="16" fill="#D3D9E6"/>
    <rect x="344" y="240" width="16" height="16" fill="#A8B2C6"/>
    <rect x="360" y="240" width="16" height="16" fill="#74809B"/>

    <rect x="120" y="256" width="16" height="16" fill="#74809B"/>
    <rect x="136" y="256" width="240" height="16" fill="#D3D9E6"/>
    <rect x="376" y="256" width="16" height="16" fill="#74809B"/>

    <rect x="120" y="272" width="16" height="16" fill="#74809B"/>
    <rect x="136" y="272" width="32" height="16" fill="#D3D9E6"/>
    <rect x="168" y="272" width="16" height="16" fill="#F05B72"/>
    <rect x="184" y="272" width="144" height="16" fill="#C8D0DF"/>
    <rect x="328" y="272" width="16" height="16" fill="#F05B72"/>
    <rect x="344" y="272" width="32" height="16" fill="#D3D9E6"/>
    <rect x="376" y="272" width="16" height="16" fill="#74809B"/>

    <rect x="104" y="288" width="16" height="16" fill="#74809B"/>
    <rect x="120" y="288" width="272" height="16" fill="#D3D9E6"/>
    <rect x="392" y="288" width="16" height="16" fill="#74809B"/>

    <rect x="104" y="304" width="16" height="16" fill="#74809B"/>
    <rect x="120" y="304" width="32" height="16" fill="#D3D9E6"/>
    <rect x="152" y="304" width="16" height="16" fill="#F05B72"/>
    <rect x="168" y="304" width="176" height="16" fill="#D3D9E6"/>
    <rect x="344" y="304" width="16" height="16" fill="#F05B72"/>
    <rect x="360" y="304" width="32" height="16" fill="#D3D9E6"/>
    <rect x="392" y="304" width="16" height="16" fill="#74809B"/>

    <rect x="104" y="320" width="16" height="16" fill="#74809B"/>
    <rect x="120" y="320" width="272" height="16" fill="#D3D9E6"/>
    <rect x="392" y="320" width="16" height="16" fill="#74809B"/>

    <rect x="120" y="336" width="16" height="16" fill="#74809B"/>
    <rect x="136" y="336" width="240" height="16" fill="#D3D9E6"/>
    <rect x="376" y="336" width="16" height="16" fill="#74809B"/>

    <rect x="120" y="352" width="16" height="16" fill="#74809B"/>
    <rect x="136" y="352" width="48" height="16" fill="#D3D9E6"/>
    <rect x="184" y="352" width="16" height="16" fill="#7C89A6"/>
    <rect x="200" y="352" width="48" height="16" fill="#D3D9E6"/>
    <rect x="248" y="352" width="16" height="16" fill="#7C89A6"/>
    <rect x="264" y="352" width="48" height="16" fill="#D3D9E6"/>
    <rect x="312" y="352" width="16" height="16" fill="#7C89A6"/>
    <rect x="328" y="352" width="48" height="16" fill="#D3D9E6"/>
    <rect x="376" y="352" width="16" height="16" fill="#74809B"/>

    <rect x="136" y="368" width="48" height="16" fill="#74809B"/>
    <rect x="184" y="368" width="16" height="16" fill="#D3D9E6"/>
    <rect x="200" y="368" width="48" height="16" fill="#74809B"/>
    <rect x="248" y="368" width="16" height="16" fill="#D3D9E6"/>
    <rect x="264" y="368" width="48" height="16" fill="#74809B"/>
    <rect x="312" y="368" width="16" height="16" fill="#D3D9E6"/>
    <rect x="328" y="368" width="48" height="16" fill="#74809B"/>

    <rect x="152" y="384" width="16" height="16" fill="#74809B"/>
    <rect x="168" y="384" width="32" height="16" fill="#D3D9E6"/>
    <rect x="200" y="384" width="32" height="16" fill="#74809B"/>
    <rect x="232" y="384" width="48" height="16" fill="#D3D9E6"/>
    <rect x="280" y="384" width="32" height="16" fill="#74809B"/>
    <rect x="312" y="384" width="32" height="16" fill="#D3D9E6"/>
    <rect x="344" y="384" width="16" height="16" fill="#74809B"/>

    <rect x="184" y="400" width="32" height="16" fill="#74809B"/>
    <rect x="216" y="400" width="16" height="16" fill="#D3D9E6"/>
    <rect x="232" y="400" width="48" height="16" fill="#74809B"/>
    <rect x="280" y="400" width="16" height="16" fill="#D3D9E6"/>
    <rect x="296" y="400" width="32" height="16" fill="#74809B"/>

    <rect x="184" y="416" width="16" height="16" fill="#74809B"/>
    <rect x="312" y="416" width="16" height="16" fill="#74809B"/>
    <rect x="184" y="432" width="16" height="16" fill="#74809B"/>
    <rect x="312" y="432" width="16" height="16" fill="#74809B"/>
    <rect x="184" y="448" width="16" height="16" fill="#C53A66"/>
    <rect x="312" y="448" width="16" height="16" fill="#C53A66"/>
  </g>
</svg>
