<svg width="320" height="480" viewBox="0 0 320 480" fill="none" xmlns="http://www.w3.org/2000/svg">
  <g shape-rendering="crispEdges">
    <rect x="96" y="32" width="32" height="32" fill="#6A71FF"/>
    <rect x="128" y="32" width="32" height="32" fill="#6460E3"/>
    <rect x="160" y="32" width="32" height="32" fill="#7878FF"/>

    <rect x="96" y="64" width="32" height="32" fill="#6A71FF"/>
    <rect x="128" y="64" width="32" height="32" fill="#5047C7"/>
    <rect x="160" y="64" width="32" height="32" fill="#B6B8FF"/>
    <rect x="192" y="64" width="32" height="32" fill="#E4EEFF"/>

    <rect x="96" y="96" width="32" height="32" fill="#6A71FF"/>
    <rect x="128" y="96" width="32" height="32" fill="#5851DB"/>
    <rect x="160" y="96" width="32" height="32" fill="#B497C6"/>
    <rect x="192" y="96" width="32" height="32" fill="#7EABFF"/>

    <rect x="64" y="128" width="32" height="32" fill="#F25F7F"/>
    <rect x="96" y="128" width="32" height="32" fill="#6A71FF"/>
    <rect x="128" y="128" width="32" height="32" fill="#9C85B5"/>
    <rect x="160" y="128" width="32" height="32" fill="#6866B2"/>
    <rect x="192" y="128" width="32" height="32" fill="#B497C6"/>
    <rect x="224" y="128" width="32" height="32" fill="#5C7CF5"/>

    <rect x="64" y="160" width="32" height="32" fill="#F25F7F"/>
    <rect x="96" y="160" width="32" height="32" fill="#6A71FF"/>
    <rect x="128" y="160" width="32" height="32" fill="#BCA2D0"/>
    <rect x="160" y="160" width="32" height="32" fill="#B497C6"/>
    <rect x="192" y="160" width="32" height="32" fill="#8C5E7C"/>
    <rect x="224" y="160" width="32" height="32" fill="#5C7CF5"/>

    <rect x="64" y="192" width="32" height="32" fill="#F25F7F"/>
    <rect x="96" y="192" width="32" height="32" fill="#5E63F1"/>
    <rect x="128" y="192" width="32" height="32" fill="#B497C6"/>
    <rect x="160" y="192" width="32" height="32" fill="#B497C6"/>
    <rect x="192" y="192" width="32" height="32" fill="#B497C6"/>
    <rect x="224" y="192" width="32" height="32" fill="#5C7CF5"/>

    <rect x="64" y="224" width="32" height="32" fill="#6A71FF"/>
    <rect x="96" y="224" width="32" height="32" fill="#5E63F1"/>
    <rect x="128" y="224" width="32" height="32" fill="#FFFFFF"/>
    <rect x="160" y="224" width="32" height="32" fill="#B497C6"/>
    <rect x="192" y="224" width="32" height="32" fill="#B497C6"/>
    <rect x="224" y="224" width="32" height="32" fill="#5C7CF5"/>

    <rect x="96" y="256" width="32" height="32" fill="#5E63F1"/>
    <rect x="128" y="256" width="32" height="32" fill="#5E63F1"/>
    <rect x="160" y="256" width="32" height="32" fill="#5E63F1"/>
    <rect x="192" y="256" width="32" height="32" fill="#5C7CF5"/>

    <rect x="96" y="288" width="32" height="32" fill="#5E63F1"/>
    <rect x="128" y="288" width="32" height="32" fill="#5E63F1"/>
    <rect x="160" y="288" width="32" height="32" fill="#5E63F1"/>
    <rect x="192" y="288" width="32" height="32" fill="#5C7CF5"/>

    <rect x="64" y="320" width="32" height="32" fill="#41369D"/>
    <rect x="96" y="320" width="32" height="32" fill="#5E63F1"/>
    <rect x="128" y="320" width="32" height="32" fill="#5E63F1"/>
    <rect x="160" y="320" width="32" height="32" fill="#5E63F1"/>
    <rect x="192" y="320" width="32" height="32" fill="#F25F7F"/>
    <rect x="224" y="320" width="32" height="32" fill="#5C7CF5"/>

    <rect x="64" y="352" width="32" height="32" fill="#41369D"/>
    <rect x="96" y="352" width="32" height="32" fill="#5E63F1"/>
    <rect x="128" y="352" width="32" height="32" fill="#5E63F1"/>
    <rect x="160" y="352" width="32" height="32" fill="#5E63F1"/>
    <rect x="192" y="352" width="32" height="32" fill="#5C7CF5"/>
    <rect x="224" y="352" width="32" height="32" fill="#41369D"/>

    <rect x="96" y="384" width="32" height="32" fill="#5E63F1"/>
    <rect x="128" y="384" width="32" height="32" fill="#5E63F1"/>
    <rect x="160" y="384" width="32" height="32" fill="#5E63F1"/>
    <rect x="192" y="384" width="32" height="32" fill="#5C7CF5"/>

    <rect x="96" y="416" width="32" height="32" fill="#4A3CC5"/>
    <rect x="160" y="416" width="32" height="32" fill="#4A3CC5"/>
  </g>
</svg>
